<svg xmlns="http://www.w3.org/2000/svg" width="491.339" height="476.22" viewBox="0 0 130 126"  fill="#fff" xmlns:v="https://vecta.io/nano"><path d="M0 122h130v4H0z" fill-rule="evenodd"/><path d="M5 3h4v120H5z"/><path d="M5 0h100v4H5z"/><path d="M95 1h4v25h-4z"/><circle cx="96.805" cy="35.378" r="8.487" fill-opacity="0" stroke="#fff" stroke-width="3.025"/><path d="M95 44h4v30h-4z"/><path d="M95.536 72L99 74 86.5 95.651l-3.464-2z"/><path d="M95 74l3.464-2 12.5 21.651-3.464 2zm1.55-24.695l2.828 2.828L81.7 69.811l-2.828-2.828z"/><path d="M114.228 66.983l-2.828 2.828-17.678-17.678 2.828-2.828z"/></svg>